/* XPM */
static char * wall_32x32_xpm[] = {
"32 32 44 1",
" 	c #E8B48F",
".	c #E4A672",
"+	c #E2A26D",
"@	c #DE9C66",
"#	c #D99359",
"$	c #DC9961",
"%	c #E1A26C",
"&	c #E2A36F",
"*	c #DA955C",
"=	c #E0A06A",
"-	c #E4A571",
";	c #E1A16C",
">	c #D9945A",
",	c #D08A57",
"'	c #C17952",
")	c #CA8455",
"!	c #DC9860",
"~	c #C47D53",
"{	c #D69058",
"]	c #DB975F",
"^	c #BB7351",
"/	c #B86F50",
"(	c #C27A53",
"_	c #D18B57",
":	c #CE8856",
"<	c #DD9A63",
"[	c #E1AA83",
"}	c #CD8756",
"|	c #DEA67F",
"1	c #C57E54",
"2	c #E5B18B",
"3	c #C88154",
"4	c #D89460",
"5	c #DC9A65",
"6	c #E09F69",
"7	c #BD7451",
"8	c #D58F58",
"9	c #BE7651",
"0	c #CC8658",
"a	c #B97050",
"b	c #C07852",
"c	c #D9955E",
"d	c #D38E5A",
"e	c #DF9F6A",
" .+@###$%&..+%*###=%-..%%####%-.",
" ;>,''')#*!!>#~'''{#]!!##''''#].",
" {^//////(__^///////:__///////:<",
"[}/////////////////////////////*",
"|//////////////////////////////1",
"|//////////////////////////////1",
"|//////////////////////////////1",
"23/////////////////////////////4",
" }/////////////////////////////<",
" 5^///////////////////////////:&",
" 67///////////////////////////8.",
" 67///////////////////////////8.",
" }/////////////////////////////<",
" }/////////////////////////////<",
"|//////////////////////////////1",
"|//////////////////////////////1",
"|//////////////////////////////1",
"|//////////////////////////////1",
" }/////////////////////////////<",
" }/////////////////////////////<",
" 67///////////////////////////8.",
" 67///////////////////////////8.",
" 5^///////////////////////////:&",
" }/////////////////////////////<",
"23/////////////////////////////4",
"|//////////////////////////////1",
"|//////////////////////////////1",
"|//////////////////////////////1",
"[9/////////////////////////////0",
" }/////////////////////////////<",
" ;19///^'0!!1'a///b'c!!''////'c.",
" .+5___4%&..+%d___e%-..%%____%-."};
