/* XPM */
static char * chest_32x32_xpm[] = {
"32 32 314 2",
"  	c #FFFFFF",
". 	c #F6F6F6",
"+ 	c #CFCECE",
"@ 	c #ABA8A9",
"# 	c #B8B6B7",
"$ 	c #E4E3E4",
"% 	c #E5E3E4",
"& 	c #A69FA0",
"* 	c #4F3033",
"= 	c #4D2F34",
"- 	c #452E39",
"; 	c #3E2D3C",
"> 	c #412D3B",
", 	c #4A2F37",
"' 	c #756768",
") 	c #C8C5C5",
"! 	c #F3F3F3",
"~ 	c #8F7773",
"{ 	c #7A4638",
"] 	c #75453D",
"^ 	c #5A404D",
"/ 	c #3C3B57",
"( 	c #483D54",
"_ 	c #684245",
": 	c #825B52",
"< 	c #9B8D8C",
"[ 	c #513134",
"} 	c #7F4A3A",
"| 	c #97573E",
"1 	c #8F5646",
"2 	c #6B4F5D",
"3 	c #3F4A6B",
"4 	c #514C67",
"5 	c #7F5252",
"6 	c #8F533D",
"7 	c #6B3F37",
"8 	c #726A6D",
"9 	c #573535",
"0 	c #8E5541",
"a 	c #AB6649",
"b 	c #A36552",
"c 	c #7C606D",
"d 	c #505D7D",
"e 	c #615E78",
"f 	c #916360",
"g 	c #A26047",
"h 	c #77473C",
"i 	c #5B3838",
"j 	c #9A5F4A",
"k 	c #BA7355",
"l 	c #B2725F",
"m 	c #8B727D",
"n 	c #62718E",
"o 	c #727189",
"p 	c #A0726F",
"q 	c #B06D52",
"r 	c #804E42",
"s 	c #5D3C3C",
"t 	c #9F6A58",
"u 	c #C08067",
"v 	c #B98171",
"w 	c #9A8792",
"x 	c #7B8BA5",
"y 	c #878A9F",
"z 	c #AB8483",
"A 	c #B67962",
"B 	c #84574B",
"C 	c #5F3F3E",
"D 	c #A37160",
"E 	c #C58972",
"F 	c #BF8B7D",
"G 	c #A4959F",
"H 	c #8B9BB4",
"I 	c #9499AD",
"J 	c #B2908F",
"K 	c #BB826C",
"L 	c #875C51",
"M 	c #5E3E3E",
"N 	c #A26E5D",
"O 	c #C3866E",
"P 	c #BD8879",
"Q 	c #A1909B",
"R 	c #8696AF",
"S 	c #9094A9",
"T 	c #B08C8B",
"U 	c #B97F69",
"V 	c #865A4F",
"W 	c #5C3A3A",
"X 	c #9D6451",
"Y 	c #BD7A5F",
"Z 	c #B67A68",
"` 	c #937D88",
" .	c #707F9A",
"..	c #7D7E95",
"+.	c #A57C79",
"@.	c #B3735A",
"#.	c #825347",
"$.	c #593636",
"%.	c #965A45",
"&.	c #B46C4E",
"*.	c #AC6C58",
"=.	c #856A76",
"-.	c #5A6988",
";.	c #6C6A83",
">.	c #9D6D69",
",.	c #B86F50",
"'.	c #B06E59",
").	c #876B77",
"!.	c #6B6982",
"~.	c #9A6B68",
"{.	c #AA664B",
"].	c #7C4B3E",
"^.	c #543335",
"/.	c #874F3E",
"(.	c #A15F44",
"_.	c #9A6050",
":.	c #7B6574",
"<.	c #666882",
"[.	c #8C6364",
"}.	c #995A42",
"|.	c #714339",
"1.	c #91533B",
"2.	c #8B5649",
"3.	c #715F70",
"4.	c #576584",
"5.	c #68667F",
"6.	c #996A67",
"7.	c #B46D51",
"8.	c #B3725C",
"9.	c #B37664",
"0.	c #B37561",
"a.	c #B47057",
"b.	c #AB6B57",
"c.	c #846874",
"d.	c #61637E",
"e.	c #7F5A5F",
"f.	c #8A4F3A",
"g.	c #683C36",
"h.	c #8A5345",
"i.	c #6B5463",
"j.	c #485474",
"k.	c #5A5670",
"l.	c #885B5A",
"m.	c #A16654",
"n.	c #9F7E81",
"o.	c #9E8D98",
"p.	c #9E8891",
"q.	c #A0736D",
"r.	c #995D4C",
"s.	c #745865",
"t.	c #56546F",
"u.	c #7C5356",
"v.	c #4E2F33",
"w.	c #754337",
"x.	c #834E40",
"y.	c #624755",
"z.	c #3B4161",
"A.	c #4B435D",
"B.	c #744A4C",
"C.	c #8A5D56",
"D.	c #8B8595",
"E.	c #8A9AB3",
"F.	c #8898B1",
"G.	c #878FA6",
"H.	c #897078",
"I.	c #834B39",
"J.	c #643A35",
"K.	c #462B32",
"L.	c #5B3634",
"M.	c #633B39",
"N.	c #503844",
"O.	c #3D344B",
"P.	c #443648",
"Q.	c #5A3A3E",
"R.	c #6D5054",
"S.	c #7F8295",
"T.	c #7B8AA5",
"U.	c #6F7992",
"V.	c #6B5C6A",
"W.	c #513133",
"X.	c #6D6468",
"Y.	c #57494F",
"Z.	c #412932",
"`.	c #4A2D33",
" +	c #4F2F33",
".+	c #4B2D33",
"++	c #482C33",
"@+	c #472B33",
"#+	c #432932",
"$+	c #402832",
"%+	c #422831",
"&+	c #504450",
"*+	c #737B90",
"=+	c #8191AB",
"-+	c #6C7A96",
";+	c #55607D",
">+	c #4C475C",
",+	c #432831",
"'+	c #412832",
")+	c #452A33",
"!+	c #492C33",
"~+	c #4D2E33",
"{+	c #442F38",
"]+	c #56494E",
"^+	c #847E80",
"/+	c #C6C4C5",
"(+	c #8F898B",
"_+	c #693D36",
":+	c #784538",
"<+	c #6D3E37",
"[+	c #643836",
"}+	c #603636",
"|+	c #4F2F34",
"1+	c #4D2A2E",
"2+	c #583D46",
"3+	c #66697F",
"4+	c #596784",
"5+	c #4A506E",
"6+	c #503E50",
"7+	c #522A2C",
"8+	c #48292F",
"9+	c #583235",
"0+	c #673A37",
"a+	c #734137",
"b+	c #8E898B",
"c+	c #B7B6B6",
"d+	c #F1F1F1",
"e+	c #8B4F3B",
"f+	c #7E463A",
"g+	c #743F39",
"h+	c #6F3D38",
"i+	c #442931",
"j+	c #542B2B",
"k+	c #5E373C",
"l+	c #5E556A",
"m+	c #5B617E",
"n+	c #4D516E",
"o+	c #45405C",
"p+	c #563744",
"q+	c #5E2E2A",
"r+	c #4E2B2F",
"s+	c #784239",
"t+	c #854B3A",
"u+	c #874D3A",
"v+	c #663B35",
"w+	c #60565A",
"x+	c #A9A7A8",
"y+	c #D4D4D4",
"z+	c #794239",
"A+	c #603332",
"B+	c #664650",
"C+	c #684F5E",
"D+	c #5D4251",
"E+	c #64383B",
"F+	c #683733",
"G+	c #542F32",
"H+	c #764039",
"I+	c #7C4439",
"J+	c #7A4439",
"K+	c #5E3635",
"L+	c #753F39",
"M+	c #774139",
"N+	c #733F38",
"O+	c #5A3335",
"P+	c #562C2D",
"Q+	c #64312B",
"R+	c #6D3A34",
"S+	c #723D37",
"T+	c #693630",
"U+	c #80483A",
"V+	c #814939",
"W+	c #623935",
"X+	c #472A32",
"Y+	c #5E3332",
"Z+	c #713D37",
"`+	c #733E38",
" @	c #6F3B35",
".@	c #884D3A",
"+@	c #8E513B",
"@@	c #82493A",
"#@	c #874C3A",
"$@	c #8D513B",
"%@	c #90523B",
"&@	c #F2F2F2",
"*@	c #B3B0B1",
"=@	c #675657",
"-@	c #7D5248",
";@	c #86503E",
">@	c #725450",
",@	c #756F71",
"'@	c #AEACAD",
")@	c #A39F9F",
"!@	c #857372",
"~@	c #958C8B",
"{@	c #C0C0C0",
"]@	c #F9F9F9",
"^@	c #E1E1E1",
"/@	c #C3C3C3",
"(@	c #959293",
"_@	c #CDCDCD",
":@	c #C9C9C9",
"<@	c #B8B7B7",
"[@	c #FAFAFA",
"}@	c #E5E5E5",
"|@	c #D3D3D3",
"1@	c #D0D0D0",
"2@	c #CECECE",
"3@	c #D1D1D1",
"4@	c #DADADA",
"5@	c #FDFDFD",
"6@	c #F5F5F5",
"7@	c #EAEAEA",
"8@	c #E2E2E2",
"9@	c #F0F0F0",
"  . + @ @ @ @ @ @ @ @ @ @ @ @ @ @ @ @ @ @ @ @ @ @ @ @ @ @ # $   ",
". % & * * = - ; ; > , * * * * * * * * * * = - ; ; > , * * ' ) ! ",
"+ & ~ { { ] ^ / / ( _ { { { { { { { { { { ] ^ / / ( _ { { : < # ",
"@ [ } | | 1 2 3 3 4 5 | | | | | | | | | | 1 2 3 3 4 5 | | 6 7 8 ",
"@ 9 0 a a b c d d e f a a a a a a a a a a b c d d e f a a g h 8 ",
"@ i j k k l m n n o p k k k k k k k k k k l m n n o p k k q r 8 ",
"@ s t u u v w x x y z u u u u u u u u u u v w x x y z u u A B 8 ",
"@ C D E E F G H H I J E E E E E E E E E E F G H H I J E E K L 8 ",
"@ C D E E F G H H I J E E E E E E E E E E F G H H I J E E K L 8 ",
"@ M N O O P Q R R S T O O O O O O O O O O P Q R R S T O O U V 8 ",
"@ W X Y Y Z `  . ...+.Y Y Y Y Y Y Y Y Y Y Z `  . ...+.Y Y @.#.8 ",
"@ $.%.&.&.*.=.-.-.;.>.,.,.,.,.,.,.,.,.,.,.'.).-.-.!.~.&.&.{.].8 ",
"@ ^./.(.(._.:.-.-.;.>.,.,.,.,.,.,.,.,.,.,.'.).-.-.<.[.(.(.}.|.8 ",
"@ * { 1.1.2.3.4.4.5.6.&.&.7.8.9.9.0.a.&.&.b.c.4.4.d.e.1.1.f.g.8 ",
"@ * { 1.1.h.i.j.j.k.l.(.(.m.n.o.o.p.q.(.(.r.s.j.j.t.u.1.1.f.g.8 ",
"@ v.w.f.f.x.y.z.z.A.B.f.f.C.D.E.F.G.H.f.f.x.y.z.z.A.B.f.f.I.J.8 ",
"@ K.L.g.g.M.N.O.O.P.Q.g.g.R.S.F.T.U.V.g.g.M.N.O.O.P.Q.g.g.J.W.8 ",
"# X.Y.Z.`. +.+++++@+#+$+%+&+*+=+-+;+>+,+'+$+)+++++!+~+v.K.{+]+^+",
"$ /+(+`._+:+<+[+[+}+|+%+1+2+3+-+4+5+6+7+8+)+9+[+[+0+a+w.L.]+b+c+",
"  d+@  +:+e+f+g+g+h+9+i+j+k+l+m+n+o+p+q+r+++[+g+g+s+t+u+v+w+x+y+",
"  d+@ .+<+f+z+g+g+h+9+i+j+A+B+C+D+p+E+F+G+++[+g+g+H+I+J+K+w+x+y+",
"  d+@ ++[+g+g+L+M+N+O+i+P+Q+R+S+T+Q+R+h+9+!+0+s+H+g+g+h+9+w+x+y+",
"  d+@ ++[+g+g+M+U+V+W+X+Y+R+Z+`+ @R+Z+h+9+~+a+t+I+g+g+h+9+w+x+y+",
"  d+@ !+0+s+s+I+.@f.g.!+0+s+s+s+s+s+s+N+O+* { +@@@s+s+N+O+w+x+y+",
"  d+@ ~+a+#@#@.@$@f.g.~+a+#@#@#@#@#@#@V+W+* { %@e+#@#@V+W+w+x+y+",
"  &@*@=@-@f.f.f.f.I.J.v.w.f.f.f.f.f.f.I.J.v.w.f.f.f.f.;@>@,@'@y+",
"  . + )@!@g.g.g.g.J.W.K.L.g.g.g.g.g.g.J.W.K.L.g.g.g.g.>@~@'@{@y+",
"  ]@^@/@(@w+w+w+w+w+w+w+w+w+w+w+w+w+w+w+w+w+w+w+w+w+w+,@'@_@_@y+",
"  ]@^@:@<@x+x+x+x+x+x+x+x+x+x+x+x+x+x+x+x+x+x+x+x+x+x+'@{@_@_@y+",
"  [@}@|@1@_@_@_@_@_@_@_@_@_@_@_@_@_@_@_@_@_@_@_@_@_@_@_@_@2@3@4@",
"  5@6@7@4@_@_@_@_@_@_@_@_@_@_@_@_@_@_@_@_@_@_@_@_@_@_@_@_@3@8@9@",
"      [@}@y+y+y+y+y+y+y+y+y+y+y+y+y+y+y+y+y+y+y+y+y+y+y+y+4@9@  "};
